<svg width="476" height="412" viewBox="0 0 476 412" fill="none" xmlns="http://www.w3.org/2000/svg">
<ellipse cx="6.71846" cy="73.8032" rx="6.18819" ry="6.26466" fill="#2A327D"/>
<ellipse cx="51.2732" cy="73.803" rx="6.18819" ry="6.26466" fill="#2A327D"/>
<ellipse cx="28.9963" cy="73.803" rx="6.18819" ry="6.26466" fill="#2A327D"/>
<ellipse cx="73.5505" cy="73.803" rx="6.18819" ry="6.26466" fill="#2A327D"/>
<ellipse cx="118.106" cy="73.803" rx="6.18819" ry="6.26466" fill="#2A327D"/>
<ellipse cx="140.383" cy="73.803" rx="6.18819" ry="6.26466" fill="#2A327D"/>
<ellipse cx="95.8283" cy="73.803" rx="6.18819" ry="6.26466" fill="#2A327D"/>
<ellipse cx="6.71846" cy="96.3555" rx="6.18819" ry="6.26466" fill="#2A327D"/>
<ellipse cx="51.2736" cy="96.3557" rx="6.18819" ry="6.26466" fill="#2A327D"/>
<ellipse cx="28.9968" cy="96.3557" rx="6.18819" ry="6.26466" fill="#2A327D"/>
<ellipse cx="73.551" cy="96.3557" rx="6.18819" ry="6.26466" fill="#2A327D"/>
<ellipse cx="118.107" cy="96.3557" rx="6.18819" ry="6.26466" fill="#2A327D"/>
<ellipse cx="140.383" cy="96.3557" rx="6.18819" ry="6.26466" fill="#2A327D"/>
<ellipse cx="95.8288" cy="96.3557" rx="6.18819" ry="6.26466" fill="#2A327D"/>
<ellipse cx="6.71846" cy="118.909" rx="6.18819" ry="6.26466" fill="#2A327D"/>
<ellipse cx="51.2736" cy="118.909" rx="6.18819" ry="6.26466" fill="#2A327D"/>
<ellipse cx="28.9968" cy="118.909" rx="6.18819" ry="6.26466" fill="#2A327D"/>
<ellipse cx="73.551" cy="118.909" rx="6.18819" ry="6.26466" fill="#2A327D"/>
<ellipse cx="118.107" cy="118.909" rx="6.18819" ry="6.26466" fill="#2A327D"/>
<ellipse cx="140.383" cy="118.909" rx="6.18819" ry="6.26466" fill="#2A327D"/>
<ellipse cx="95.8288" cy="118.909" rx="6.18819" ry="6.26466" fill="#2A327D"/>
<ellipse cx="6.71846" cy="141.461" rx="6.18819" ry="6.26466" fill="#2A327D"/>
<ellipse cx="51.2736" cy="141.461" rx="6.18819" ry="6.26466" fill="#2A327D"/>
<ellipse cx="28.9968" cy="141.461" rx="6.18819" ry="6.26466" fill="#2A327D"/>
<ellipse cx="73.551" cy="141.461" rx="6.18819" ry="6.26466" fill="#2A327D"/>
<ellipse cx="118.107" cy="141.461" rx="6.18819" ry="6.26466" fill="#2A327D"/>
<ellipse cx="140.383" cy="141.461" rx="6.18819" ry="6.26466" fill="#2A327D"/>
<ellipse cx="95.8288" cy="141.461" rx="6.18819" ry="6.26466" fill="#2A327D"/>
<ellipse cx="6.71846" cy="164.014" rx="6.18819" ry="6.26466" fill="#2A327D"/>
<ellipse cx="51.2736" cy="164.014" rx="6.18819" ry="6.26466" fill="#2A327D"/>
<ellipse cx="28.9968" cy="164.014" rx="6.18819" ry="6.26466" fill="#2A327D"/>
<ellipse cx="73.551" cy="164.014" rx="6.18819" ry="6.26466" fill="#2A327D"/>
<ellipse cx="118.107" cy="164.014" rx="6.18819" ry="6.26466" fill="#2A327D"/>
<ellipse cx="140.383" cy="164.014" rx="6.18819" ry="6.26466" fill="#2A327D"/>
<ellipse cx="95.8288" cy="164.014" rx="6.18819" ry="6.26466" fill="#2A327D"/>
<ellipse cx="6.71846" cy="186.567" rx="6.18819" ry="6.26466" fill="#2A327D"/>
<ellipse cx="51.2736" cy="186.567" rx="6.18819" ry="6.26466" fill="#2A327D"/>
<ellipse cx="28.9968" cy="186.567" rx="6.18819" ry="6.26466" fill="#2A327D"/>
<ellipse cx="73.551" cy="186.567" rx="6.18819" ry="6.26466" fill="#2A327D"/>
<ellipse cx="118.107" cy="186.567" rx="6.18819" ry="6.26466" fill="#2A327D"/>
<ellipse cx="140.383" cy="186.567" rx="6.18819" ry="6.26466" fill="#2A327D"/>
<ellipse cx="95.8288" cy="186.567" rx="6.18819" ry="6.26466" fill="#2A327D"/>
<g filter="url(#filter0_d)">
<g filter="url(#filter1_d)">
<rect x="155.241" y="130.998" width="249.28" height="179.414" rx="20" fill="#00C689"/>
</g>
<g filter="url(#filter2_d)">
<rect x="97.8906" y="103.318" width="249.28" height="179.414" rx="17" fill="white"/>
</g>
<path d="M335.238 103.318H110.181C106.983 103.318 103.916 104.604 101.655 106.893C99.3943 109.182 98.124 112.287 98.124 115.524V270.129C98.124 273.366 99.3943 276.47 101.655 278.759C103.916 281.048 106.983 282.334 110.181 282.334H194.577V323.02C194.577 323.824 194.813 324.611 195.255 325.28C195.696 325.948 196.324 326.47 197.058 326.778C197.792 327.086 198.6 327.166 199.38 327.009C200.159 326.852 200.875 326.465 201.437 325.896L210.653 316.567V351.499C210.653 352.304 210.889 353.09 211.33 353.759C211.772 354.428 212.399 354.95 213.134 355.258C213.868 355.565 214.676 355.646 215.455 355.489C216.235 355.332 216.951 354.945 217.513 354.376L230.747 340.978L243.981 354.376C244.735 355.139 245.757 355.568 246.823 355.568C247.351 355.57 247.874 355.465 248.362 355.259C249.096 354.951 249.723 354.429 250.165 353.76C250.606 353.091 250.842 352.304 250.841 351.499V282.334H335.238C338.436 282.334 341.502 281.048 343.763 278.759C346.024 276.47 347.295 273.366 347.295 270.129V115.524C347.295 112.287 346.024 109.182 343.763 106.893C341.502 104.604 338.436 103.318 335.238 103.318ZM214.768 279.275C212.161 276.801 208.775 275.339 205.207 275.145C202.17 275.049 199.282 273.785 197.133 271.609C194.984 269.434 193.735 266.511 193.641 263.436C193.449 259.824 192.005 256.396 189.562 253.757C187.615 251.543 186.539 248.682 186.539 245.717C186.539 242.753 187.615 239.892 189.562 237.678C192.006 235.037 193.45 231.608 193.641 227.995C193.736 224.92 194.986 221.998 197.135 219.824C199.283 217.649 202.17 216.385 205.207 216.29C208.775 216.096 212.161 214.633 214.768 212.16C216.983 210.248 219.798 209.197 222.709 209.197C225.62 209.197 228.436 210.248 230.651 212.16C233.258 214.633 236.644 216.096 240.212 216.29C243.248 216.385 246.135 217.649 248.284 219.824C250.433 221.998 251.682 224.92 251.778 227.995C251.968 231.608 253.413 235.037 255.857 237.678C257.804 239.892 258.879 242.753 258.879 245.717C258.879 248.682 257.804 251.543 255.857 253.757C253.414 256.396 251.969 259.824 251.778 263.436C251.683 266.511 250.434 269.434 248.285 271.609C246.136 273.785 243.249 275.049 240.212 275.145C236.644 275.339 233.258 276.801 230.651 279.275C228.436 281.187 225.62 282.238 222.709 282.238C219.798 282.238 216.983 281.187 214.768 279.275ZM261.869 232.291C260.689 231.056 259.962 229.45 259.808 227.738C259.646 222.602 257.557 217.72 253.967 214.087C250.377 210.453 245.555 208.34 240.481 208.177C238.792 208.021 237.206 207.284 235.988 206.09C232.281 202.899 227.575 201.147 222.709 201.147C217.844 201.147 213.137 202.899 209.431 206.09C208.212 207.284 206.627 208.021 204.938 208.177C199.864 208.34 195.041 210.453 191.451 214.087C187.861 217.72 185.773 222.602 185.611 227.738C185.457 229.45 184.73 231.056 183.549 232.291C180.465 235.784 178.686 240.26 178.521 244.942C178.357 249.625 179.817 254.217 182.649 257.923H137.911C137.117 254.016 135.209 250.431 132.423 247.611C129.638 244.791 126.096 242.859 122.237 242.056V143.597C126.096 142.793 129.638 140.862 132.423 138.042C135.209 135.221 137.117 131.636 137.911 127.73H307.508C308.302 131.636 310.209 135.221 312.995 138.042C315.781 140.862 319.322 142.793 323.181 143.597V242.056C319.322 242.859 315.781 244.791 312.995 247.611C310.209 250.431 308.302 254.016 307.508 257.923H262.77C265.601 254.217 267.062 249.625 266.897 244.942C266.733 240.26 264.954 235.784 261.869 232.291ZM202.615 282.977C203.383 283.123 204.158 283.222 204.938 283.274C206.627 283.43 208.212 284.167 209.431 285.361C213.09 288.653 217.814 290.471 222.709 290.471C224.061 290.462 225.407 290.312 226.728 290.024V313.214L217.513 303.885C216.759 303.123 215.737 302.694 214.672 302.694C213.606 302.694 212.584 303.123 211.83 303.885L202.615 313.198V282.977ZM233.588 332.349C232.835 331.586 231.813 331.158 230.747 331.158C229.681 331.158 228.659 331.586 227.906 332.349L218.69 341.678V316.567L227.906 325.896C228.659 326.659 229.681 327.088 230.747 327.088C231.275 327.09 231.799 326.985 232.286 326.779C233.02 326.471 233.648 325.949 234.089 325.28C234.531 324.611 234.766 323.824 234.766 323.02V286.403H234.589C235.055 286.053 235.55 285.752 235.988 285.361C237.206 284.167 238.792 283.43 240.481 283.274C241.26 283.222 242.036 283.123 242.804 282.977V341.678L233.588 332.349ZM339.257 270.129C339.257 271.208 338.833 272.243 338.08 273.006C337.326 273.769 336.304 274.197 335.238 274.197H256.496C258.076 271.74 259.107 268.963 259.514 266.06H311.125C312.191 266.06 313.213 265.631 313.966 264.868C314.72 264.105 315.144 263.071 315.144 261.992C315.144 258.754 316.414 255.65 318.675 253.361C320.936 251.072 324.003 249.786 327.2 249.786C328.266 249.786 329.288 249.357 330.042 248.594C330.796 247.831 331.219 246.796 331.219 245.717V139.935C331.219 138.856 330.796 137.821 330.042 137.058C329.288 136.295 328.266 135.867 327.2 135.867C324.003 135.867 320.936 134.581 318.675 132.292C316.414 130.003 315.144 126.898 315.144 123.661C315.144 122.582 314.72 121.547 313.966 120.784C313.213 120.021 312.191 119.593 311.125 119.593H134.294C133.228 119.593 132.206 120.021 131.452 120.784C130.698 121.547 130.275 122.582 130.275 123.661C130.275 126.898 129.005 130.003 126.744 132.292C124.483 134.581 121.416 135.867 118.218 135.867C117.153 135.867 116.13 136.295 115.377 137.058C114.623 137.821 114.2 138.856 114.2 139.935V245.717C114.2 246.796 114.623 247.831 115.377 248.594C116.13 249.357 117.153 249.786 118.218 249.786C121.416 249.786 124.483 251.072 126.744 253.361C129.005 255.65 130.275 258.754 130.275 261.992C130.275 263.071 130.698 264.105 131.452 264.868C132.206 265.631 133.228 266.06 134.294 266.06H185.904C186.312 268.963 187.342 271.74 188.923 274.197H110.181C109.115 274.197 108.093 273.769 107.339 273.006C106.585 272.243 106.162 271.208 106.162 270.129V115.524C106.162 114.445 106.585 113.41 107.339 112.647C108.093 111.884 109.115 111.455 110.181 111.455H335.238C336.304 111.455 337.326 111.884 338.08 112.647C338.833 113.41 339.257 114.445 339.257 115.524V270.129Z" fill="black"/>
<path d="M222.709 221.306C217.94 221.306 213.278 222.738 209.313 225.42C205.347 228.103 202.257 231.915 200.432 236.376C198.607 240.836 198.129 245.745 199.06 250.48C199.99 255.215 202.287 259.565 205.659 262.979C209.031 266.393 213.328 268.718 218.005 269.66C222.683 270.602 227.531 270.118 231.937 268.271C236.343 266.423 240.109 263.294 242.759 259.28C245.409 255.265 246.823 250.546 246.823 245.718C246.816 239.245 244.274 233.04 239.753 228.463C235.232 223.887 229.103 221.313 222.709 221.306ZM222.709 261.992C219.53 261.992 216.422 261.037 213.778 259.249C211.135 257.461 209.074 254.919 207.858 251.946C206.641 248.972 206.323 245.7 206.943 242.543C207.563 239.386 209.094 236.486 211.342 234.21C213.591 231.934 216.455 230.384 219.573 229.756C222.692 229.128 225.924 229.451 228.861 230.682C231.799 231.914 234.309 234 236.076 236.676C237.842 239.352 238.785 242.499 238.785 245.718C238.785 250.034 237.091 254.173 234.077 257.225C231.062 260.277 226.973 261.992 222.709 261.992Z" fill="black"/>
<path d="M162.427 152.141H282.993V160.278H162.427V152.141Z" fill="black"/>
<path d="M146.351 168.415H299.068V176.552H146.351V168.415Z" fill="black"/>
<path d="M274.956 241.649H299.069V249.786H274.956V241.649Z" fill="black"/>
<path d="M146.351 241.649H170.464V249.786H146.351V241.649Z" fill="black"/>
<g clip-path="url(#clip0)">
<path d="M189.942 131.688H197.95V134.382H192.706V136.77H197.376V139.463H192.706V142.268H197.95V144.961H189.942V131.688ZM208.369 144.961H205.195L203.453 142.444L201.72 144.961H198.582L201.884 140.167L198.783 135.65H201.957L203.471 137.853L205.003 135.65H208.141L205.04 140.148L208.369 144.961ZM214.582 135.464C215.367 135.464 216.084 135.68 216.735 136.112C217.392 136.538 217.905 137.121 218.276 137.862C218.653 138.602 218.842 139.414 218.842 140.296C218.842 141.179 218.653 141.993 218.276 142.74C217.905 143.48 217.392 144.067 216.735 144.498C216.084 144.93 215.367 145.146 214.582 145.146C214.005 145.146 213.464 145.029 212.959 144.795C212.46 144.554 212.099 144.242 211.874 143.86V148.034H209.238V135.65H211.874V136.751C212.099 136.368 212.46 136.06 212.959 135.825C213.464 135.585 214.005 135.464 214.582 135.464ZM214.008 142.61C214.646 142.61 215.181 142.391 215.613 141.953C216.045 141.509 216.261 140.956 216.261 140.296C216.261 139.642 216.042 139.093 215.604 138.649C215.172 138.204 214.64 137.982 214.008 137.982C213.564 137.982 213.147 138.093 212.758 138.315C212.369 138.531 212.074 138.812 211.874 139.158V141.435C212.074 141.786 212.366 142.07 212.749 142.286C213.132 142.502 213.552 142.61 214.008 142.61ZM224.317 135.464C224.979 135.464 225.603 135.588 226.186 135.835C226.776 136.082 227.281 136.421 227.7 136.853C228.126 137.279 228.46 137.794 228.704 138.399C228.953 138.997 229.078 139.636 229.078 140.315C229.078 141.222 228.868 142.046 228.448 142.786C228.035 143.527 227.463 144.107 226.734 144.526C226.01 144.94 225.204 145.146 224.317 145.146C222.961 145.146 221.827 144.687 220.915 143.767C220.003 142.848 219.547 141.697 219.547 140.315C219.547 138.932 220.003 137.779 220.915 136.853C221.827 135.927 222.961 135.464 224.317 135.464ZM224.317 138.019C223.69 138.019 223.167 138.238 222.748 138.676C222.334 139.108 222.128 139.654 222.128 140.315C222.128 140.956 222.334 141.496 222.748 141.935C223.167 142.373 223.69 142.592 224.317 142.592C224.931 142.592 225.448 142.373 225.867 141.935C226.287 141.496 226.497 140.956 226.497 140.315C226.497 139.654 226.287 139.108 225.867 138.676C225.454 138.238 224.937 138.019 224.317 138.019ZM235.866 142.481L236.003 144.85C235.65 145.023 235.2 145.109 234.653 145.109C233.558 145.109 232.674 144.776 231.999 144.11C231.33 143.437 230.996 142.508 230.996 141.324V138.195H229.29V135.65H230.996V133.206H233.631V135.65H235.884V138.195H233.631V141.185C233.631 141.611 233.768 141.956 234.042 142.221C234.315 142.481 234.65 142.61 235.045 142.61C235.349 142.61 235.623 142.567 235.866 142.481ZM245.582 139.898C245.582 140.275 245.558 140.623 245.509 140.944H238.915C239.036 141.574 239.301 142.055 239.708 142.388C240.116 142.715 240.636 142.879 241.268 142.879C241.681 142.879 242.077 142.789 242.454 142.61C242.837 142.431 243.107 142.203 243.265 141.925L245.318 143.203C244.983 143.82 244.454 144.298 243.731 144.637C243.007 144.977 242.168 145.146 241.213 145.146C239.863 145.146 238.72 144.677 237.784 143.739C236.854 142.795 236.388 141.635 236.388 140.259C236.388 138.908 236.847 137.772 237.766 136.853C238.69 135.927 239.821 135.464 241.159 135.464C242.399 135.464 243.445 135.893 244.296 136.751C245.153 137.609 245.582 138.658 245.582 139.898ZM238.951 139.241H242.946C242.891 138.778 242.679 138.392 242.308 138.084C241.937 137.775 241.508 137.621 241.022 137.621C240.474 137.621 240.025 137.763 239.672 138.047C239.319 138.331 239.079 138.729 238.951 139.241ZM255.426 142.481C255.079 143.289 254.517 143.937 253.738 144.424C252.96 144.906 252.084 145.146 251.111 145.146C249.738 145.146 248.588 144.687 247.664 143.767C246.746 142.848 246.287 141.697 246.287 140.315C246.287 138.932 246.746 137.779 247.664 136.853C248.588 135.927 249.738 135.464 251.111 135.464C252 135.464 252.799 135.671 253.51 136.085C254.228 136.498 254.772 137.057 255.143 137.76L252.918 139.047C252.747 138.726 252.501 138.476 252.179 138.297C251.863 138.112 251.507 138.019 251.111 138.019C250.461 138.019 249.923 138.238 249.497 138.676C249.078 139.114 248.868 139.661 248.868 140.315C248.868 140.963 249.078 141.506 249.497 141.944C249.923 142.376 250.461 142.592 251.111 142.592C251.556 142.592 251.951 142.49 252.297 142.286C252.65 142.076 252.915 141.786 253.091 141.416L255.426 142.481Z" fill="black"/>
</g>
</g>
<rect width="20.0891" height="20.1701" rx="5" transform="matrix(0.811473 0.58439 -0.574936 0.818198 150.833 0.703857)" fill="#FEA31B"/>
<rect width="20.2049" height="20.0541" rx="5" transform="matrix(0.437443 0.899246 -0.894945 0.446176 20.4785 310.573)" fill="#FEA31B"/>
<rect width="20.2061" height="20.0529" rx="5" transform="matrix(0.431777 0.90198 -0.897776 0.440452 466.66 222.81)" fill="#FEA31B"/>
<rect width="20.2378" height="20.0209" rx="5" transform="matrix(-0.244609 0.969622 -0.968165 -0.250315 453.651 34.0696)" fill="#FEA31B"/>
<defs>
<filter id="filter0_d" x="57.8906" y="79.3184" width="386.63" height="332.25" filterUnits="userSpaceOnUse" color-interpolation-filters="sRGB">
<feFlood flood-opacity="0" result="BackgroundImageFix"/>
<feColorMatrix in="SourceAlpha" type="matrix" values="0 0 0 0 0 0 0 0 0 0 0 0 0 0 0 0 0 0 127 0"/>
<feOffset dy="16"/>
<feGaussianBlur stdDeviation="20"/>
<feColorMatrix type="matrix" values="0 0 0 0 0.603922 0 0 0 0 0.666667 0 0 0 0 0.811765 0 0 0 0.25 0"/>
<feBlend mode="normal" in2="BackgroundImageFix" result="effect1_dropShadow"/>
<feBlend mode="normal" in="SourceGraphic" in2="effect1_dropShadow" result="shape"/>
</filter>
<filter id="filter1_d" x="151.241" y="130.998" width="257.28" height="187.414" filterUnits="userSpaceOnUse" color-interpolation-filters="sRGB">
<feFlood flood-opacity="0" result="BackgroundImageFix"/>
<feColorMatrix in="SourceAlpha" type="matrix" values="0 0 0 0 0 0 0 0 0 0 0 0 0 0 0 0 0 0 127 0"/>
<feOffset dy="4"/>
<feGaussianBlur stdDeviation="2"/>
<feColorMatrix type="matrix" values="0 0 0 0 0 0 0 0 0 0 0 0 0 0 0 0 0 0 0.25 0"/>
<feBlend mode="normal" in2="BackgroundImageFix" result="effect1_dropShadow"/>
<feBlend mode="normal" in="SourceGraphic" in2="effect1_dropShadow" result="shape"/>
</filter>
<filter id="filter2_d" x="93.8906" y="103.318" width="257.28" height="187.414" filterUnits="userSpaceOnUse" color-interpolation-filters="sRGB">
<feFlood flood-opacity="0" result="BackgroundImageFix"/>
<feColorMatrix in="SourceAlpha" type="matrix" values="0 0 0 0 0 0 0 0 0 0 0 0 0 0 0 0 0 0 127 0"/>
<feOffset dy="4"/>
<feGaussianBlur stdDeviation="2"/>
<feColorMatrix type="matrix" values="0 0 0 0 0 0 0 0 0 0 0 0 0 0 0 0 0 0 0.25 0"/>
<feBlend mode="normal" in2="BackgroundImageFix" result="effect1_dropShadow"/>
<feBlend mode="normal" in="SourceGraphic" in2="effect1_dropShadow" result="shape"/>
</filter>
<clipPath id="clip0">
<rect width="66.2259" height="17.2332" fill="white" transform="translate(189.535 131.175)"/>
</clipPath>
</defs>
</svg>
