<svg width="302" height="105" viewBox="0 0 302 105" fill="none" xmlns="http://www.w3.org/2000/svg">
<path d="M80.1792 17.8569V35.7139H86.4519C91.6623 35.7139 93.104 35.6127 95.1021 35.208C101.957 33.7916 107.116 28.91 108.634 22.4097C109.924 16.8705 109.013 10.6231 106.332 6.60147C104.511 3.84452 101.982 2.12459 98.0109 0.910519C95.7851 0.227604 95.5574 0.202309 87.9695 0.101135L80.1792 -3.43323e-05V17.8569ZM95.7345 4.45156C98.0867 5.10918 99.832 6.07032 101.274 7.48673C103.752 9.99075 104.891 13.7341 104.638 18.5145C104.41 22.612 103.398 25.369 101.248 27.6454C99.7308 29.2641 98.1879 30.2253 95.7345 31.0599C93.8881 31.6923 93.281 31.7681 89.1077 31.8693L84.479 31.9705V17.8822V3.79393L89.3606 3.9204C92.8005 3.99628 94.6469 4.14804 95.7345 4.45156Z" fill="black"/>
<path d="M112.605 1.74519L112.681 3.46513L114.401 3.541L116.096 3.61689V17.8822V32.1728H114.325H112.555V33.9433V35.7139H118.246H123.936V33.9433V32.1728H122.166H120.395V17.8822V3.59159H122.166H123.936V1.82107V0.0505524H118.246H112.529L112.605 1.74519Z" fill="black"/>
<path d="M129.754 17.8822V35.7139H131.904H134.054V28.1259V20.538H136.153C139.138 20.538 140.681 21.0439 142.122 22.5361C142.78 23.2191 144.803 26.2542 146.827 29.6182C148.774 32.881 150.469 35.5621 150.621 35.638C150.798 35.6886 151.936 35.6886 153.201 35.6633L155.477 35.5874L151.405 29.0871C146.877 21.8785 146.093 20.8162 144.652 19.8551L143.665 19.1975L145.006 18.6663C148.623 17.174 150.595 14.7964 151.278 11.0784C152.012 7.08204 150.165 3.08573 146.726 1.31521C144.55 0.227604 143.159 0.0505524 136.28 0.0505524H129.754V17.8822ZM143.716 4.57802C145.183 5.28623 146.321 6.55089 146.675 7.81554C147.358 10.269 146.624 13.3042 145.006 14.7459C143.21 16.314 142.173 16.5923 137.924 16.6934L134.054 16.7946V10.2943V3.79394L138.303 3.89511C142.072 3.97099 142.653 4.04687 143.716 4.57802Z" fill="black"/>
<path d="M160.358 17.8822V35.7139H169.97H179.606L179.531 33.8675L179.455 32.0464L172.069 31.9705L164.658 31.9199V25.7231V19.5263H171.108H177.558V17.6293V15.7323H171.108H164.658V9.78841V3.84452H171.614H178.569V1.94754V0.0505524H169.464H160.358V17.8822Z" fill="black"/>
<path d="M183.375 0.151726C183.375 0.227604 185.829 4.22392 188.813 9.02962L194.226 17.781L188.484 26.4313C185.297 31.1864 182.616 35.2333 182.515 35.3851C182.389 35.638 182.92 35.7139 184.943 35.7139L187.548 35.6886L191.646 29.0618C193.872 25.4196 195.92 22.005 196.173 21.4738C196.426 20.968 196.679 20.538 196.78 20.538C196.856 20.538 197.185 21.0186 197.463 21.6003C197.767 22.2073 199.765 25.5966 201.89 29.1377L205.785 35.5874L208.365 35.6633C209.781 35.6886 210.945 35.6633 210.945 35.6127C210.945 35.5368 208.441 31.5405 205.38 26.7095C202.32 21.9038 199.816 17.8569 199.816 17.7305C199.816 17.604 202.269 13.633 205.254 8.92844C208.238 4.22392 210.692 0.278191 210.692 0.202312C210.692 0.126434 209.629 0.0505524 208.339 0.0505524H205.962L201.788 6.93028C199.487 10.7243 197.463 14.1135 197.286 14.4423C196.983 15.0494 196.932 15.0241 195.996 13.1777C195.465 12.166 193.568 8.80198 191.798 5.74151L188.535 0.177017L185.955 0.101139C184.539 0.0758476 183.375 0.101139 183.375 0.151726Z" fill="black"/>
<path d="M149.533 50.2576C146.574 50.9152 143.969 52.9892 142.527 55.8474C141.819 57.2385 141.768 57.542 141.768 60.1219C141.768 62.7271 141.819 63.0053 142.577 64.5988C143.589 66.7487 145.259 68.418 147.383 69.4045C152.568 71.8326 158.512 69.7333 160.94 64.6241C161.699 63.0306 161.75 62.7018 161.75 60.2484C161.75 57.7949 161.699 57.4661 160.966 55.9485C159.448 52.8122 157.121 50.9405 153.883 50.2576C151.809 49.8276 151.582 49.8276 149.533 50.2576Z" fill="#CC1F26"/>
<path d="M148.471 86.4519V90.9288L147.788 90.2206C145.562 87.9948 141.035 88.5007 139.062 91.207C137.671 93.104 137.494 93.7869 137.494 96.9233C137.468 99.7055 137.494 99.9079 138.227 101.198C139.568 103.651 141.971 104.764 144.702 104.258C145.41 104.107 146.043 104.005 146.119 104.005C146.169 104.005 146.726 103.525 147.333 102.968L148.471 101.906V102.968V104.005H149.736H151V93.0028V82.0003H149.736H148.471V86.4519ZM146.65 91.5358C148.167 92.6487 148.471 93.4581 148.471 96.3921C148.471 99.4526 148.016 100.616 146.473 101.653C145.284 102.462 143.058 102.462 141.895 101.653C140.478 100.692 139.998 99.4526 139.998 96.6703C139.998 94.571 140.074 94.1157 140.63 93.1293C141.819 91.0047 144.854 90.1953 146.65 91.5358Z" fill="black"/>
<path d="M37.1049 82.7087C36.1691 83.7457 36.8267 85.2886 38.1925 85.2886C39.1031 85.2886 39.7101 84.6815 39.7101 83.771C39.7101 82.4557 37.9649 81.7728 37.1049 82.7087Z" fill="black"/>
<path d="M108.002 82.7593C106.965 83.7963 107.673 85.2886 109.191 85.2886C110.101 85.2886 110.607 84.7827 110.607 83.8975C110.607 82.4557 108.988 81.7728 108.002 82.7593Z" fill="black"/>
<path d="M271.572 83.518C271.345 84.5551 270.51 84.7321 268.942 84.0239C266.21 82.7845 265.148 82.8857 264.313 84.5551C263.555 85.9968 263.63 86.5532 264.566 86.5532C265.123 86.5532 265.325 86.4268 265.325 86.0979C265.325 84.9092 266.514 84.7321 268.36 85.668C270.51 86.7556 271.876 86.4521 272.685 84.7068C273.368 83.1892 273.318 82.7593 272.432 82.7593C271.825 82.7593 271.674 82.8857 271.572 83.518Z" fill="black"/>
<path d="M16.4404 93.6099V104.005H20.3103C24.3825 104.005 25.8495 103.752 27.797 102.766C29.4917 101.881 31.1863 100.136 32.1222 98.3144C32.881 96.8221 32.9821 96.3668 33.0833 94.0652C33.3109 88.7536 31.4393 85.4655 27.3924 83.9732C26.1277 83.4926 25.2677 83.3915 21.1955 83.3156L16.4404 83.2144V93.6099ZM26.583 86.3255C28.3029 87.1349 28.9605 87.7925 29.7446 89.4618C30.5287 91.1565 30.7311 93.1293 30.3517 95.3804C29.9723 97.6062 28.9605 99.2503 27.2659 100.388C25.7736 101.375 24.1548 101.729 21.2461 101.729H18.9697V93.6099V85.4908L22.0808 85.592C24.7619 85.6679 25.3436 85.769 26.583 86.3255Z" fill="black"/>
<path d="M179.834 93.6352V104.005H185.424H190.988L190.912 102.918L190.836 101.855L186.613 101.78L182.363 101.729V98.188V94.6722L186.107 94.5963L189.825 94.5204L189.901 93.4328L189.977 92.3705H186.183H182.363V88.956V85.5414H186.41H190.457V84.4032V83.265H185.146H179.834V93.6352Z" fill="black"/>
<path d="M71.8325 85.1369L70.9473 85.4657L70.8714 87.2615L70.7955 89.0826H69.5562H68.2915V90.069V91.0808L69.5056 91.1567L70.6944 91.2325L70.8208 96.6706C70.922 101.476 70.9979 102.184 71.4279 102.817C72.0855 103.778 73.2237 104.309 74.6148 104.309C76.5371 104.309 76.8912 104.107 76.8912 103.019V102.058L75.6518 102.184C74.6401 102.26 74.3366 102.21 73.8813 101.754C73.3754 101.249 73.3501 100.97 73.3501 96.1647V91.1061H75.1206H76.8912V90.0943V89.0826H75.1206H73.3501V86.9327C73.3501 84.5804 73.3501 84.5804 71.8325 85.1369Z" fill="black"/>
<path d="M209.933 85.1369L209.048 85.4657L208.972 87.2615L208.896 89.0826H207.657H206.392V90.0943V91.1061H207.631H208.896L208.972 96.4682C209.048 101.552 209.073 101.906 209.63 102.766C210.313 103.879 211.248 104.309 212.918 104.309C214.638 104.309 215.245 103.93 215.245 102.867V102.007L213.904 102.159C212.639 102.286 212.513 102.235 212.007 101.603C211.476 100.945 211.451 100.642 211.451 96.0129V91.1061H213.373H215.27L215.194 90.1449L215.118 89.2091L213.297 89.1332L211.451 89.0573V86.9327C211.451 84.5804 211.451 84.5804 209.933 85.1369Z" fill="black"/>
<path d="M48.9424 89.2595C48.2089 89.6642 47.4501 90.4483 46.8684 91.46C46.5902 91.9153 46.5649 91.7888 46.5396 90.5241V89.0824H45.2749H44.0103V96.5439V104.005H45.2496H46.489L46.5902 99.1238C46.666 94.4952 46.6913 94.2169 47.2984 93.1293C48.1836 91.5611 49.423 90.9035 50.8394 91.2829L51.8764 91.5359L51.8005 90.2459L51.7247 88.956L50.7129 88.9054C50.1565 88.8548 49.3724 89.0065 48.9424 89.2595Z" fill="black"/>
<path d="M57.466 89.4872C54.962 90.7266 53.5709 93.2306 53.5203 96.5187C53.495 100.996 55.2908 103.576 58.9583 104.258C60.5518 104.562 63.1064 104.208 64.5228 103.474C65.4586 103.019 65.5092 102.918 65.5092 101.83V100.692L64.3204 101.4C63.2328 102.033 62.8534 102.109 60.9059 102.109C59.0848 102.109 58.6042 102.033 57.9972 101.577C57.1119 100.92 56.2519 99.3769 56.0749 98.1122L55.9231 97.1764H61.2347H66.521V96.0887C66.521 94.5712 65.8633 92.1683 65.1298 91.0807C63.7134 88.9308 60.0965 88.172 57.466 89.4872ZM62.3476 91.4601C63.0811 91.9407 63.6375 92.9271 63.8652 94.2171L64.0422 95.1529H60.0712H56.1002L56.2519 94.3688C56.8084 91.5613 60.0965 89.9931 62.3476 91.4601Z" fill="black"/>
<path d="M83.5938 89.3354C82.1268 89.9172 80.6345 91.2577 79.8504 92.7247C79.3698 93.61 79.2939 94.1664 79.2939 96.6704C79.2939 99.9838 79.5975 100.844 81.368 102.538C82.7338 103.854 83.9985 104.309 86.2496 104.334C90.2459 104.36 92.9017 102.134 93.5846 98.188C94.1157 95.1276 93.0534 91.6624 91.1564 90.2207C89.2594 88.779 86.0219 88.3996 83.5938 89.3354ZM87.9948 91.106C89.133 91.4348 90.4482 92.7247 90.8529 93.8629C91.0047 94.3688 91.1564 95.6334 91.1564 96.6957C91.1564 100.009 89.7906 101.931 87.2866 102.184C84.7067 102.412 83.0879 101.603 82.1774 99.5792C81.6209 98.3904 81.545 95.4564 82.0003 94.1158C82.8856 91.5359 85.3137 90.3219 87.9948 91.106Z" fill="black"/>
<path d="M102.311 89.2595C101.425 89.74 100.768 90.4735 100.287 91.4853C99.933 92.2188 99.933 92.2188 99.9077 90.6506V89.0824H98.6431H97.3784V96.5439V104.005H98.6178H99.8571L99.9583 99.1238C100.034 94.4952 100.059 94.2169 100.667 93.1293C101.552 91.5611 102.791 90.9035 104.208 91.2829L105.245 91.5359L105.169 90.2459L105.093 88.956L104.081 88.9054C103.525 88.8548 102.741 89.0065 102.311 89.2595Z" fill="black"/>
<path d="M118.245 89.0064C117.967 89.0823 117.208 89.3605 116.551 89.6388C115.337 90.1446 115.337 90.1699 115.337 91.384V92.5981L116.905 91.7887C118.169 91.1311 118.751 90.9793 120.041 90.9793C121.432 90.9793 121.736 91.0552 122.318 91.6369C122.773 92.0922 123.026 92.6739 123.102 93.458L123.228 94.5962L121.002 94.8997C118.094 95.2791 116.905 95.5827 115.918 96.1897C113.44 97.7073 113.288 101.83 115.615 103.575C117.36 104.865 120.522 104.587 122.191 103.019L123.178 102.058V103.044V104.005H124.467H125.732L125.656 97.9855L125.58 91.9404L124.872 90.8781C123.911 89.4364 122.57 88.8294 120.395 88.8547C119.485 88.88 118.524 88.9559 118.245 89.0064ZM123.178 97.9855C123.178 100.591 121.66 102.235 119.282 102.235C117.411 102.235 116.525 101.476 116.525 99.8825C116.525 99.0984 116.677 98.542 116.981 98.1878C117.638 97.4796 120.016 96.822 122.368 96.6956L123.178 96.6703V97.9855Z" fill="black"/>
<path d="M158.968 89.4365C156.615 90.5241 155.072 92.9522 154.845 95.9115C154.541 100.388 156.565 103.601 160.156 104.258C161.826 104.562 164.203 104.284 165.62 103.575C166.48 103.171 166.556 103.019 166.631 101.957L166.707 100.793L165.266 101.501C163.647 102.336 161.472 102.488 160.03 101.881C158.968 101.451 157.931 100.211 157.577 98.9973C157.045 97.0497 156.717 97.1762 162.635 97.1762C167.517 97.1762 167.947 97.1509 167.947 96.7209C167.921 95.431 167.39 92.7246 166.96 91.9152C165.493 89.0824 162.028 87.9948 158.968 89.4365ZM163.369 91.3082C164.38 91.8646 165.164 93.1546 165.164 94.3181V95.1527H161.219H157.298L157.45 94.571C157.779 93.5593 158.361 92.4211 158.791 92.0417C160.131 90.8276 161.927 90.5241 163.369 91.3082Z" fill="black"/>
<path d="M221.441 89.4365C218.937 90.6252 217.521 92.9016 217.319 96.0633C216.965 101.729 220.379 105.118 225.615 104.284C226.475 104.132 227.588 103.828 228.093 103.575C228.953 103.171 229.029 103.019 229.105 101.957L229.181 100.793L227.739 101.501C226.121 102.336 223.945 102.488 222.504 101.881C221.441 101.451 220.404 100.211 220.05 98.9973C219.519 97.0497 219.19 97.1762 225.008 97.1762H230.243L230.117 95.0768C229.99 92.8005 229.459 91.4852 228.22 90.2964C226.576 88.7283 223.718 88.3489 221.441 89.4365ZM225.767 91.2576C226.778 91.7381 227.638 93.2051 227.638 94.3939V95.1527H223.718H219.797L219.949 94.4445C220.657 91.5611 223.313 90.0941 225.767 91.2576Z" fill="black"/>
<path d="M238.843 89.2342C238.413 89.4112 237.629 89.993 237.148 90.4988L236.238 91.4347V90.2712V89.0824H234.973H233.708V96.5439V104.005H234.948H236.213L236.288 98.9973C236.364 93.2811 236.592 92.4717 238.413 91.4094C239.602 90.7012 241.499 90.7518 242.333 91.5106C243.497 92.5223 243.674 93.4581 243.775 98.8709L243.876 104.005H245.015H246.127L246.052 98.1121L245.976 92.2441L245.267 91.03C244.736 90.1447 244.23 89.6642 243.497 89.3101C242.232 88.7536 240.032 88.703 238.843 89.2342Z" fill="black"/>
<path d="M252.956 89.1835C251.565 89.6893 250.25 90.954 249.947 92.0922C249.34 94.5203 250.604 96.1897 254.145 97.6314C255.258 98.1119 256.346 98.6684 256.548 98.896C257.357 99.8066 257.105 101.476 256.093 101.931C254.904 102.462 252.4 102.311 251.009 101.602C250.326 101.248 249.744 100.97 249.719 100.97C249.668 100.97 249.643 101.552 249.643 102.26C249.643 103.474 249.668 103.55 250.604 103.929C251.161 104.157 252.349 104.334 253.564 104.359C255.334 104.385 255.764 104.283 257.105 103.626C258.875 102.741 259.558 101.779 259.558 100.11C259.558 97.9349 258.673 97.0496 254.904 95.4309C253.336 94.748 252.881 94.4444 252.577 93.7615C252.021 92.6233 252.4 91.7128 253.564 91.2322C254.98 90.6252 256.27 90.7516 258.572 91.7381C258.951 91.8898 259.002 91.7634 259.002 90.6505V89.3858L257.889 89.1076C256.447 88.7535 254.069 88.7788 252.956 89.1835Z" fill="black"/>
<path d="M266.463 89.0064C266.185 89.057 265.426 89.3353 264.768 89.6388C263.554 90.1699 263.554 90.1952 263.554 91.384V92.5981L265.072 91.814C266.716 90.954 268.613 90.6505 269.675 91.0805C270.56 91.4093 271.395 92.7498 271.395 93.7868V94.5962L269.195 94.8997C266.311 95.2791 265.122 95.5827 264.136 96.1897C261.632 97.7326 261.48 101.805 263.833 103.575C265.578 104.865 268.739 104.587 270.409 103.019L271.395 102.058V103.044V104.005H272.66H273.924V98.4661C273.924 94.9756 273.823 92.6487 273.621 92.0922C272.862 89.8158 271.319 88.8294 268.613 88.8547C267.702 88.88 266.741 88.9306 266.463 89.0064ZM271.395 98.0108C271.395 100.565 269.852 102.235 267.5 102.235C266.109 102.235 265.375 101.805 264.819 100.742C264.389 99.9078 264.718 98.5672 265.477 97.9602C266.033 97.5302 266.64 97.3532 269.245 96.822C269.523 96.7714 270.131 96.7208 270.586 96.6956L271.395 96.6703V98.0108Z" fill="black"/>
<path d="M282.195 89.1838C280.02 89.9679 278.275 91.8143 277.693 93.9389C277.39 95.0771 277.339 97.9858 277.617 99.0987C278.401 102.361 280.981 104.309 284.522 104.334C289.632 104.36 292.743 100.363 291.857 94.9253C291.402 91.9913 289.935 90.0437 287.558 89.2091C286.268 88.7285 283.485 88.7285 282.195 89.1838ZM286.293 91.106C287.38 91.4096 288.519 92.4719 289.025 93.6354C289.252 94.1665 289.404 95.33 289.429 96.5694C289.48 99.9839 288.139 101.932 285.585 102.184C281.968 102.513 280.02 100.642 279.995 96.7717C279.995 93.863 280.754 92.2948 282.575 91.3843C283.764 90.8025 284.952 90.7266 286.293 91.106Z" fill="black"/>
<path d="M36.9277 96.5439V104.005H38.1924H39.457V96.5439V89.0824H38.1924H36.9277V96.5439Z" fill="black"/>
<path d="M107.749 96.5439V104.005H109.013H110.278V96.5439V89.0824H109.013H107.749V96.5439Z" fill="black"/>
<path d="M193.265 90.0183C193.593 90.5494 194.681 92.2694 195.693 93.8375C196.73 95.431 197.463 96.8221 197.387 96.9739C197.286 97.1509 196.148 98.795 194.833 100.641L192.506 104.005H193.948H195.389L196.325 102.412C196.856 101.552 197.64 100.237 198.121 99.5032L198.956 98.1627L200.726 101.071L202.471 104.005H203.938H205.38L202.927 100.338L200.498 96.6704L202.927 93.0029C204.292 90.9794 205.38 89.2848 205.38 89.2089C205.38 89.1077 204.798 89.0824 204.065 89.133L202.75 89.2089L200.979 92.1682C199.993 93.8122 199.133 95.1528 199.057 95.1528C198.981 95.1528 198.172 93.8122 197.261 92.1682L195.592 89.2089L194.125 89.133L192.683 89.0571L193.265 90.0183Z" fill="black"/>
<path d="M164.405 56.1509H298.332C300.358 56.1509 302 57.7929 302 59.8184C302 61.8439 300.358 63.4859 298.332 63.4859H164.405V56.1509Z" fill="#369E46"/>
<path d="M137.595 63.7388L3.6676 63.7388C1.64209 63.7388 9.15527e-05 62.0968 9.15527e-05 60.0713C9.15527e-05 58.0458 1.64209 56.4038 3.6676 56.4038L137.595 56.4038V63.7388Z" fill="#369E46"/>
</svg>
