<svg width="1985" height="533" viewBox="0 0 1985 533" fill="none" xmlns="http://www.w3.org/2000/svg">
<path d="M0 222.5V445H140.5H281L280.8 391.7L280.5 338.5L195.8 338.2L111 338V303.5V269H186.5H262V215.5V162H186.5H111V134.5V107H196H281V53.5V-6.63102e-06H140.5H0V222.5ZM270.8 52.7L270.5 95.5L185.8 95.8L101 96V134V172H176H251V215.5V259H176H101V304V349H186H271V392V435H141H11V222.5V9.99999H141H271L270.8 52.7Z" fill="black"/>
<path d="M1247 128V162L1222.8 162.2L1198.5 162.5L1198.2 208.7L1198 255H1222.4H1246.8L1247.3 303.7C1247.7 347.9 1247.9 353.4 1249.8 362C1253.4 378.9 1258.1 390.9 1265.7 402.3C1285.7 432.4 1319.4 449 1360.3 449C1381.8 449 1394.4 446.5 1406.3 440.2L1411.2 437.6L1410.6 431C1410.3 427.4 1409.1 408.3 1407.9 388.5C1406.7 368.7 1405.6 352.4 1405.5 352.2C1405.3 352 1401.5 353 1397 354.4C1384.7 358.3 1376.1 359.4 1368.2 358C1356.6 356 1350.1 351.3 1345.3 341.5C1343.4 337.8 1343.2 334.5 1342.6 296.2L1341.9 255H1374.5H1407V208.5V162H1374.5H1342V128V94H1294.5H1247V128Z" fill="black"/>
<path d="M749.5 158.1C735.5 160 715.3 167.1 704.4 173.8L699.5 176.9L698.9 174.2C698.5 172.7 698.2 169.7 698.1 167.4L698 163.3L680.8 162.7C671.3 162.3 649.9 162 633.3 162H603V347V532H650.5H698V481.5C698 453.7 698.2 431 698.5 431C698.8 431 702.5 433 706.8 435.5C722.9 444.8 738.1 448.9 759.6 449.7C781.1 450.5 796.5 448 813.9 440.6C832.2 432.9 856.2 413.1 868.8 395.4C880.2 379.5 889.4 357.7 894.2 335.7C896.1 327 896.4 322.4 896.5 304.5C896.5 280.6 894.8 269.4 888.4 250.8C880.4 227.7 871.5 213.4 854 195.9C833.9 175.6 814.9 164.9 789 159.5C780 157.6 758.6 156.8 749.5 158.1ZM787.3 169.6C809.8 173.9 831.1 185.9 848.6 204.2C894.1 251.8 899.8 331.1 861.7 388C855.3 397.6 838.6 414.3 829 420.7C807.6 435 786.7 440.8 760.5 439.6C732.7 438.4 709.2 428.9 694.4 412.7L688.3 406.1L687.7 433.8C687.3 449 687 475.1 687 491.7V522H650H613V347V172H650H687V184.7C687 203.5 686.7 203.2 696.3 193.5C703.5 186.3 706 184.6 717 179.2C736 169.8 750.3 166.7 769.5 167.7C775 167.9 783 168.8 787.3 169.6Z" fill="black"/>
<path d="M738.8 239C720.5 241.9 700.5 253.6 691.1 266.9L687 272.8V303.6V334.3L690.1 339.1C694 345.2 704 354.5 711.2 358.8C731 370.6 760.2 371.8 779.5 361.7C787.6 357.4 801.6 343.4 805.8 335.4C810.9 325.5 812.4 318.3 812.4 302.5C812.5 286.7 811 280.9 804.2 269.5C791.4 248.1 763.6 235.1 738.8 239ZM761 250.1C770.2 251.6 778.2 256.2 787 265C795.4 273.4 799.3 280.3 801.6 290.8C807.2 317.6 795.5 342.7 772.1 353.9L764.5 357.5H748.5C733.3 357.5 732.2 357.3 726.1 354.7C717.2 351 708 344.8 702.6 339L698 334.1V303.8V273.4L703.8 267.8C712.9 258.9 724.9 252.1 735.5 250C741.4 248.8 753.6 248.9 761 250.1Z" fill="black"/>
<path d="M1035.5 158.1C1014.1 159.5 983.4 170.8 966.2 183.5C951.5 194.3 933.5 214 924.8 228.7C918.6 239.1 912.8 253.7 909.3 267.5C906.6 278.1 906.5 279.4 906.5 303.5C906.5 324 906.8 330 908.3 336.8C917.8 379.8 944.5 414.8 982.7 434.3C1003.5 444.9 1019.1 448.8 1043.5 449.7C1071.1 450.7 1090.5 447.6 1110.6 439C1154.5 420.3 1184.8 382.9 1195.2 334.7C1198.4 319.9 1198.4 290.1 1195.2 275.3C1188.2 243.1 1177.1 222.2 1155.5 200.4C1134.5 179.3 1111.1 166.3 1083.3 160.4C1074.2 158.5 1048.4 157.2 1035.5 158.1ZM1081.8 170.5C1099.8 174.5 1119.6 183.6 1134.1 194.5C1143.9 201.8 1156.9 215.1 1162.7 223.5C1172.3 237.7 1182.4 261.9 1185.5 278.1C1187.5 288.9 1187.5 318.6 1185.5 330.2C1180.9 356.5 1167.7 382.4 1149.7 400.3C1129.7 420.3 1109.5 431.4 1082.7 437.2C1074 439.1 1069.4 439.4 1052 439.4C1029.2 439.4 1019.5 437.9 1002.3 431.9C976.6 422.9 953.8 405 938.5 382C922.6 358.2 916 335.2 916 304C916 263.3 927.7 234.3 955.5 206.5C974.9 187 995.2 175.9 1022.3 170C1030.3 168.3 1034.3 168.1 1053 168.4C1067.9 168.7 1076.8 169.4 1081.8 170.5Z" fill="black"/>
<path d="M1042.5 240.1C1018.8 243.7 998.5 261.6 991.6 284.9C989.4 292.4 989.4 315.6 991.6 323.1C994.6 333.3 1000 342 1008.5 350.5C1020.9 363 1033.2 368 1051.6 368C1062.8 368 1074.4 365.2 1081.8 360.7C1093.1 353.9 1104.3 341.5 1108.9 330.7C1113.8 319.3 1115.2 303.4 1112.5 289.4C1106.4 257.3 1075 235.1 1042.5 240.1ZM1065.5 251.4C1084.1 256.3 1099.8 273.8 1103 293.1C1105.4 307.2 1102.2 323.8 1095 335C1091 341.3 1082.2 349.4 1075.9 352.6C1069.3 355.9 1059.9 358 1051.5 358C1027.5 358 1008.4 343.3 1001.4 319.4C999.2 311.6 999.1 296.6 1001.4 288.1C1003.8 278.6 1007.6 272.3 1015.5 264.5C1026.3 253.8 1035.1 250.2 1051.5 250.1C1056.5 250.1 1062.8 250.6 1065.5 251.4Z" fill="black"/>
<path d="M1541 157.7C1497.3 162 1458 185.5 1433.2 222.1C1417.2 245.9 1410 270.2 1410 300.3C1410 319.3 1411.1 329.9 1414.6 343C1421.4 368.7 1432.7 387.9 1452.9 408C1468.9 424 1486.5 435 1507.6 442.3C1526 448.7 1531.6 449.5 1559.5 449.5C1583 449.5 1585.3 449.3 1597.5 446.7C1639.4 437.7 1666.5 419.9 1684.1 389.9C1687.5 384 1688 382.6 1686.9 381.5C1686.1 380.9 1673.4 372.9 1658.5 363.8C1620.2 340.5 1614.4 337 1613.2 337C1612.7 337 1610.8 339.2 1609 342C1604.8 348.6 1596.7 355.9 1589.8 359.2C1581.6 363.2 1573.8 365.1 1562.5 365.7C1543.4 366.7 1527.4 361.6 1517 351.1C1511.6 345.6 1504.9 334.8 1506.2 333.5C1506.6 333.1 1547.8 332.6 1597.9 332.3L1688.9 331.7L1689.4 329.6C1691.9 319.6 1692.8 288.4 1691 272.9C1689.3 258.1 1682.5 237.6 1675.3 225.5C1665.6 209.4 1646.9 189.7 1631.5 179.5C1606.3 162.7 1572.5 154.6 1541 157.7ZM1566.7 240.5C1575.7 243.2 1588.7 253.7 1592.9 261.8L1594.1 264.1L1551.6 263.8C1528.3 263.6 1508.8 263.2 1508.4 262.8C1507.4 261.8 1510.5 257.4 1516.2 251.7C1521.8 246.1 1532.8 240.5 1541 239.1C1547.9 237.9 1560.1 238.6 1566.7 240.5Z" fill="black"/>
<path d="M1823.5 159.1C1807.3 161.9 1795.9 165.5 1783.1 171.6C1766.4 179.6 1756.1 186.8 1742.9 200C1722.4 220.4 1709.6 243.7 1703.5 271.5C1701.3 281.3 1700.4 312.8 1701.9 325.8C1708.2 379.4 1747.5 426.3 1800.5 443.3C1817.7 448.9 1822.8 449.5 1849.5 449.5C1872.1 449.5 1874.1 449.3 1884 446.8C1921.5 437.3 1951.2 417.6 1969.6 389.9C1976.4 379.7 1985.5 361 1984.2 359.9C1983.5 359.3 1913.6 327.9 1905.6 324.6C1903.5 323.7 1901.4 323 1900.9 323C1900.5 323 1898.5 326.1 1896.4 330C1887.2 347.6 1873.3 356.4 1852.7 357.6C1840.7 358.4 1832.2 356.9 1823.3 352.5C1810.7 346.3 1800.7 334.2 1796.6 320.1C1794.5 313 1794.5 296.4 1796.5 288.5C1800.3 274 1810.4 261.9 1824.5 254.9C1832.6 250.9 1833.3 250.7 1844.8 250.2C1854.1 249.8 1857.9 250.1 1862.6 251.4C1874.3 254.8 1884.2 262.6 1891.8 274.5C1894.2 278.3 1896.4 281.6 1896.5 281.8C1896.8 282.2 1972.1 239.2 1975.2 236.9L1977.3 235.3L1973.7 228.9C1956.9 198.8 1929.3 175.8 1897.1 165C1884.4 160.7 1875.9 159.2 1859.3 158C1839.8 156.7 1836.5 156.8 1823.5 159.1Z" fill="black"/>
<path d="M287.6 163.2C288 163.8 309.5 194.5 335.3 231.4C361.2 268.3 382.4 299.2 382.4 300C382.3 300.8 360 333.7 332.6 373L283 444.5L338.7 444.8C390.8 445 394.5 444.9 396.1 443.3C397 442.3 420.5 409.7 448.3 370.7L498.8 300L450.7 231L402.5 162H344.7C300.9 162 287.1 162.3 287.6 163.2Z" fill="#2F9E41"/>
<path d="M463.4 184.7C454.7 197.1 447.1 207.9 446.7 208.7C446.1 209.6 454.8 222.8 474.2 250.5C489.8 272.7 502.8 290.9 503.2 290.9C503.5 291 522.6 264.1 545.6 231.2C568.6 198.4 588.9 169.4 590.8 166.7L594.2 162H536.8H479.4L463.4 184.7Z" fill="#CD191E"/>
<path d="M473.9 347.5L445.3 388.8L464.2 415.7C474.6 430.4 483.7 443.1 484.4 443.8C485.3 444.7 497.9 445 542.9 444.8L600.2 444.5L552 376C525.5 338.3 503.6 307.2 503.2 306.9C502.8 306.5 489.6 324.8 473.9 347.5Z" fill="#CD191E"/>
<path d="M102.5 513.6L99.5 516.1L102.7 514.6C104.4 513.7 106.2 512.6 106.5 512C107.6 510.2 105.5 511 102.5 513.6Z" fill="black"/>
</svg>
