<svg width="117" height="30" viewBox="0 0 117 30" fill="none" xmlns="http://www.w3.org/2000/svg">
<path d="M0.719864 0.893555H14.8673V5.58252H5.60219V9.73975H13.8522V14.4287H5.60219V19.311H14.8673V24H0.719864V0.893555ZM33.2732 24H27.6658L24.5881 19.6172L21.5266 24H15.9837L21.8167 15.6533L16.3381 7.79004H21.9456L24.6204 11.625L27.3274 7.79004H32.8704L27.3919 15.6211L33.2732 24ZM44.2509 7.46777C45.6366 7.46777 46.9042 7.84375 48.0536 8.5957C49.2137 9.33691 50.1215 10.3521 50.7767 11.6411C51.4428 12.9302 51.7758 14.3428 51.7758 15.8789C51.7758 17.415 51.4428 18.833 50.7767 20.1328C50.1215 21.4219 49.2137 22.4424 48.0536 23.1943C46.9042 23.9463 45.6366 24.3223 44.2509 24.3223C43.2304 24.3223 42.2743 24.1182 41.3827 23.71C40.5018 23.291 39.8627 22.7485 39.4652 22.0825V29.3496H34.8085V7.79004H39.4652V9.70752C39.8627 9.0415 40.5018 8.50439 41.3827 8.09619C42.2743 7.67725 43.2304 7.46777 44.2509 7.46777ZM43.2357 19.9072C44.3637 19.9072 45.309 19.5259 46.0717 18.7632C46.8344 17.9897 47.2157 17.0283 47.2157 15.8789C47.2157 14.7402 46.829 13.7842 46.0555 13.0107C45.2929 12.2373 44.3529 11.8506 43.2357 11.8506C42.4515 11.8506 41.7157 12.0439 41.0282 12.4307C40.3407 12.8066 39.8197 13.2954 39.4652 13.897V17.8608C39.8197 18.4731 40.3353 18.9673 41.0121 19.3433C41.6888 19.7192 42.4301 19.9072 43.2357 19.9072ZM61.4482 7.46777C62.6191 7.46777 63.7202 7.68262 64.7515 8.1123C65.7935 8.54199 66.6851 9.13281 67.4263 9.88477C68.1782 10.626 68.769 11.5229 69.1987 12.5757C69.6392 13.6177 69.8594 14.7295 69.8594 15.9111C69.8594 17.4902 69.4888 18.9243 68.7476 20.2134C68.0171 21.5024 67.0073 22.5122 65.7183 23.2427C64.4399 23.9624 63.0166 24.3223 61.4482 24.3223C59.0527 24.3223 57.0493 23.522 55.438 21.9214C53.8267 20.3208 53.021 18.3174 53.021 15.9111C53.021 13.5049 53.8267 11.4961 55.438 9.88477C57.0493 8.27344 59.0527 7.46777 61.4482 7.46777ZM61.4482 11.915C60.3418 11.915 59.418 12.2964 58.6768 13.0591C57.9463 13.811 57.5811 14.7617 57.5811 15.9111C57.5811 17.0283 57.9463 17.9683 58.6768 18.731C59.418 19.4937 60.3418 19.875 61.4482 19.875C62.5332 19.875 63.4463 19.4937 64.1875 18.731C64.9287 17.9683 65.2993 17.0283 65.2993 15.9111C65.2993 14.7617 64.9287 13.811 64.1875 13.0591C63.457 12.2964 62.5439 11.915 61.4482 11.915ZM81.8522 19.6816L82.0939 23.8066C81.4708 24.1074 80.6759 24.2578 79.7091 24.2578C77.7755 24.2578 76.2125 23.6777 75.0201 22.5176C73.8385 21.3467 73.2477 19.73 73.2477 17.6675V12.2212H70.2345V7.79004H73.2477V3.53613H77.9044V7.79004H81.8844V12.2212H77.9044V17.4258C77.9044 18.167 78.1461 18.7686 78.6295 19.2305C79.1129 19.6816 79.7037 19.9072 80.402 19.9072C80.9391 19.9072 81.4225 19.832 81.8522 19.6816ZM99.0173 15.186C99.0173 15.8413 98.9744 16.4482 98.8884 17.0068H87.2385C87.4534 18.1025 87.9206 18.9404 88.6404 19.5205C89.3601 20.0898 90.2786 20.3745 91.3957 20.3745C92.1262 20.3745 92.8245 20.2188 93.4905 19.9072C94.1672 19.5957 94.6453 19.1982 94.9246 18.7148L98.55 20.9385C97.9592 22.0127 97.0247 22.8452 95.7463 23.436C94.468 24.0269 92.9856 24.3223 91.2991 24.3223C88.9143 24.3223 86.8948 23.5059 85.2405 21.873C83.5969 20.2295 82.7751 18.21 82.7751 15.8145C82.7751 13.4619 83.5862 11.4854 85.2082 9.88477C86.8411 8.27344 88.8391 7.46777 91.2024 7.46777C93.3938 7.46777 95.2414 8.21436 96.7454 9.70752C98.26 11.2007 99.0173 13.0269 99.0173 15.186ZM87.303 14.042H94.3606C94.2639 13.2363 93.8879 12.5649 93.2327 12.0278C92.5774 11.4907 91.8201 11.2222 90.9607 11.2222C89.9939 11.2222 89.199 11.4692 88.5759 11.9634C87.9529 12.4575 87.5286 13.1504 87.303 14.042ZM116.408 19.6816C115.796 21.0889 114.802 22.2168 113.427 23.0654C112.052 23.9033 110.505 24.3223 108.786 24.3223C106.359 24.3223 104.328 23.522 102.696 21.9214C101.074 20.3208 100.263 18.3174 100.263 15.9111C100.263 13.5049 101.074 11.4961 102.696 9.88477C104.328 8.27344 106.359 7.46777 108.786 7.46777C110.355 7.46777 111.767 7.82764 113.024 8.54736C114.292 9.26709 115.253 10.2393 115.909 11.4639L111.977 13.7036C111.676 13.145 111.241 12.71 110.672 12.3984C110.113 12.0762 109.485 11.915 108.786 11.915C107.637 11.915 106.686 12.2964 105.934 13.0591C105.193 13.8218 104.823 14.7725 104.823 15.9111C104.823 17.0391 105.193 17.9844 105.934 18.7471C106.686 19.499 107.637 19.875 108.786 19.875C109.571 19.875 110.269 19.6978 110.881 19.3433C111.504 18.978 111.972 18.4731 112.283 17.8286L116.408 19.6816Z" fill="black"/>
</svg>
